# xmcd
#
# Track frame offsets:
# 150
# 15210
# 33152
# 45925
# 62175
# 73807
# 85715
# 94702
# 109012
# 121320
# 137037
# 149200
# 162832
# 175782
#
# Disc length: 2559 seconds
#
#
# Revision: 0
# Processed by: cddbd v1.5.1PL0 Copyright (c) Steve Scherf et al.
# Submitted via: FreeRIP 2.51 
#
DISCID=b409fd0e
DTITLE=Various Artist - Golden Anniversary Album, The - Disc 2
DYEAR=1992
DGENRE=Easy Listening
TTITLE0=A Man Without Love
TTITLE1=Cherish
TTITLE2=True Love Ways
TTITLE3=I Only Have Eyes For You
TTITLE4=If
TTITLE5=Only You
TTITLE6=Groovy Kind Of Love
TTITLE7=When I Fall In Love
TTITLE8=I Love You Because
TTITLE9=I've GotA Crush On You
TTITLE10=Stand By Your Man
TTITLE11=Ave Maria
TTITLE12=When A Man Loves A Woman
TTITLE13=My Baby Just Cares For Me
EXTD=
EXTT0=
EXTT1=
EXTT2=
EXTT3=
EXTT4=
EXTT5=
EXTT6=
EXTT7=
EXTT8=
EXTT9=
EXTT10=
EXTT11=
EXTT12=
EXTT13=
PLAYORDER=
